<svg width="13" height="21" viewBox="0 0 13 21" fill="none" xmlns="http://www.w3.org/2000/svg">
<path d="M3.70403 20.3085H1.0031C0.764318 20.3085 0.53532 20.2136 0.366479 20.0448C0.197637 19.8759 0.102783 19.6469 0.102783 19.4081V1.4019C0.102783 1.16312 0.197637 0.934124 0.366479 0.765283C0.53532 0.596441 0.764318 0.501587 1.0031 0.501587H3.70403C3.94281 0.501587 4.17181 0.596441 4.34065 0.765283C4.50949 0.934124 4.60435 1.16312 4.60435 1.4019V19.4081C4.60435 19.6469 4.50949 19.8759 4.34065 20.0448C4.17181 20.2136 3.94281 20.3085 3.70403 20.3085Z" fill="#E1E1E6"/>
<path d="M11.8068 20.3085H9.10591C8.86713 20.3085 8.63813 20.2136 8.46929 20.0448C8.30045 19.8759 8.2056 19.6469 8.2056 19.4081V1.4019C8.2056 1.16312 8.30045 0.934124 8.46929 0.765283C8.63813 0.596441 8.86713 0.501587 9.10591 0.501587H11.8068C12.0456 0.501587 12.2746 0.596441 12.4435 0.765283C12.6123 0.934124 12.7072 1.16312 12.7072 1.4019V19.4081C12.7072 19.6469 12.6123 19.8759 12.4435 20.0448C12.2746 20.2136 12.0456 20.3085 11.8068 20.3085Z" fill="#E1E1E6"/>
</svg>
